<?xml version="1.0" standalone="no"?>
<!DOCTYPE svg PUBLIC "-//W3C//DTD SVG 20010904//EN"
 "http://www.w3.org/TR/2001/REC-SVG-20010904/DTD/svg10.dtd">
<svg version="1.0" xmlns="http://www.w3.org/2000/svg"
 width="954.000000pt" height="547.000000pt" viewBox="0 0 954.000000 547.000000"
 preserveAspectRatio="xMidYMid meet">

<g transform="translate(0.000000,547.000000) scale(0.100000,-0.100000)"
fill="#002335" stroke="none">
<path d="M0 2735 l0 -2735 4770 0 4770 0 0 2735 0 2735 -4770 0 -4770 0 0
-2735z m2383 958 c-29 -2 -77 -2 -105 0 -29 2 -6 3 52 3 58 0 81 -1 53 -3z
m745 0 c-43 -2 -113 -2 -155 0 -43 1 -8 3 77 3 85 0 120 -2 78 -3z m440 0
c-15 -2 -42 -2 -60 0 -18 2 -6 4 27 4 33 0 48 -2 33 -4z m380 0 c-15 -2 -42
-2 -60 0 -18 2 -6 4 27 4 33 0 48 -2 33 -4z m910 0 c-43 -2 -113 -2 -155 0
-43 1 -8 3 77 3 85 0 120 -2 78 -3z m750 0 c-53 -2 -143 -2 -200 0 -57 1 -13
3 97 3 110 0 156 -2 103 -3z m460 0 c-15 -2 -42 -2 -60 0 -18 2 -6 4 27 4 33
0 48 -2 33 -4z m290 0 c-15 -2 -42 -2 -60 0 -18 2 -6 4 27 4 33 0 48 -2 33 -4z
m-3488 -143 c0 -53 -4 -90 -10 -90 -6 0 -10 37 -10 90 0 53 4 90 10 90 6 0 10
-37 10 -90z m670 0 c0 -53 -4 -90 -10 -90 -6 0 -10 37 -10 90 0 53 4 90 10 90
6 0 10 -37 10 -90z m390 0 c0 -73 -3 -90 -15 -90 -12 0 -15 17 -15 90 0 73 3
90 15 90 12 0 15 -17 15 -90z m670 0 c0 -53 -4 -90 -10 -90 -6 0 -10 37 -10
90 0 53 4 90 10 90 6 0 10 -37 10 -90z m670 0 c0 -53 -4 -90 -10 -90 -6 0 -10
37 -10 90 0 53 4 90 10 90 6 0 10 -37 10 -90z m770 0 c0 -53 -4 -90 -10 -90
-6 0 -10 37 -10 90 0 53 4 90 10 90 6 0 10 -37 10 -90z m-3824 63 c-37 -100
-53 -133 -63 -133 -7 0 0 28 19 75 17 41 35 75 40 75 6 0 7 -8 4 -17z m271
-58 c18 -45 26 -75 19 -75 -9 0 -25 34 -62 133 -3 9 -2 17 3 17 5 0 23 -34 40
-75z m2519 58 c-37 -100 -53 -133 -63 -133 -7 0 0 28 19 75 17 41 35 75 40 75
6 0 7 -8 4 -17z m1250 0 c-37 -100 -53 -133 -63 -133 -7 0 0 28 19 75 17 41
35 75 40 75 6 0 7 -8 4 -17z m-4156 -303 c0 -53 -4 -90 -10 -90 -6 0 -10 37
-10 90 0 53 4 90 10 90 6 0 10 -37 10 -90z m480 0 c0 -53 -4 -90 -10 -90 -6 0
-10 37 -10 90 0 53 4 90 10 90 6 0 10 -37 10 -90z m290 0 c0 -53 -4 -90 -10
-90 -6 0 -10 37 -10 90 0 53 4 90 10 90 6 0 10 -37 10 -90z m380 0 c0 -53 -4
-90 -10 -90 -6 0 -10 37 -10 90 0 53 4 90 10 90 6 0 10 -37 10 -90z m290 0 c0
-53 -4 -90 -10 -90 -6 0 -10 37 -10 90 0 53 4 90 10 90 6 0 10 -37 10 -90z
m390 0 c0 -73 -3 -90 -15 -90 -12 0 -15 17 -15 90 0 73 3 90 15 90 12 0 15
-17 15 -90z m670 0 c0 -53 -4 -90 -10 -90 -6 0 -10 37 -10 90 0 53 4 90 10 90
6 0 10 -37 10 -90z m670 0 c0 -53 -4 -90 -10 -90 -6 0 -10 37 -10 90 0 53 4
90 10 90 6 0 10 -37 10 -90z m770 0 c0 -53 -4 -90 -10 -90 -6 0 -10 37 -10 90
0 53 4 90 10 90 6 0 10 -37 10 -90z m114 43 c-8 -21 -22 -55 -31 -75 -8 -21
-19 -38 -24 -38 -12 0 -12 1 6 44 8 20 22 52 29 71 8 19 20 35 26 35 6 0 4
-14 -6 -37z m84 -39 c17 -41 26 -74 20 -72 -7 3 -25 35 -40 73 -32 77 -31 75
-19 75 5 0 22 -34 39 -76z m-3265 -11 c-7 -2 -21 -2 -30 0 -10 3 -4 5 12 5 17
0 24 -2 18 -5z m95 0 c-10 -2 -26 -2 -35 0 -10 3 -2 5 17 5 19 0 27 -2 18 -5z
m100 0 c-10 -2 -26 -2 -35 0 -10 3 -2 5 17 5 19 0 27 -2 18 -5z m1535 0 c-7
-2 -21 -2 -30 0 -10 3 -4 5 12 5 17 0 24 -2 18 -5z m95 0 c-10 -2 -26 -2 -35
0 -10 3 -2 5 17 5 19 0 27 -2 18 -5z m100 0 c-10 -2 -26 -2 -35 0 -10 3 -2 5
17 5 19 0 27 -2 18 -5z m480 0 c-10 -2 -26 -2 -35 0 -10 3 -2 5 17 5 19 0 27
-2 18 -5z m95 0 c-7 -2 -21 -2 -30 0 -10 3 -4 5 12 5 17 0 24 -2 18 -5z m95 0
c-10 -2 -26 -2 -35 0 -10 3 -2 5 17 5 19 0 27 -2 18 -5z m100 0 c-10 -2 -26
-2 -35 0 -10 3 -2 5 17 5 19 0 27 -2 18 -5z m-3235 -80 c-57 -2 -149 -2 -205
0 -57 1 -11 3 102 3 113 0 159 -2 103 -3z m-333 -153 c0 -53 -4 -90 -10 -90
-6 0 -10 37 -10 90 0 53 4 90 10 90 6 0 10 -37 10 -90z m480 0 c0 -53 -4 -90
-10 -90 -6 0 -10 37 -10 90 0 53 4 90 10 90 6 0 10 -37 10 -90z m670 0 c0 -53
-4 -90 -10 -90 -6 0 -10 37 -10 90 0 53 4 90 10 90 6 0 10 -37 10 -90z m290 0
c0 -53 -4 -90 -10 -90 -6 0 -10 37 -10 90 0 53 4 90 10 90 6 0 10 -37 10 -90z
m390 0 c0 -73 -3 -90 -15 -90 -12 0 -15 17 -15 90 0 73 3 90 15 90 12 0 15
-17 15 -90z m670 0 c0 -53 -4 -90 -10 -90 -6 0 -10 37 -10 90 0 53 4 90 10 90
6 0 10 -37 10 -90z m670 0 c0 -53 -4 -90 -10 -90 -6 0 -10 37 -10 90 0 53 4
90 10 90 6 0 10 -37 10 -90z m770 0 c0 -53 -4 -90 -10 -90 -6 0 -10 37 -10 90
0 53 4 90 10 90 6 0 10 -37 10 -90z m-1052 4 c17 -41 26 -74 20 -72 -7 3 -25
35 -40 73 -32 77 -31 75 -19 75 5 0 22 -34 39 -76z m1349 1 c18 -45 26 -75 19
-75 -9 0 -25 34 -62 133 -3 9 -2 17 3 17 5 0 23 -34 40 -75z m-3209 -92 c-43
-2 -113 -2 -155 0 -43 1 -8 3 77 3 85 0 120 -2 78 -3z m1130 0 c-53 -2 -143
-2 -200 0 -57 1 -13 3 97 3 110 0 156 -2 103 -3z m600 0 c-43 -2 -113 -2 -155
0 -43 1 -8 3 77 3 85 0 120 -2 78 -3z m750 0 c-53 -2 -143 -2 -200 0 -57 1
-13 3 97 3 110 0 156 -2 103 -3z m-2961 -470 c-98 -2 -256 -2 -350 0 -95 1
-14 3 178 2 193 0 270 -1 172 -2z m751 0 c-53 -2 -143 -2 -200 0 -57 1 -13 3
97 3 110 0 156 -2 103 -3z m765 0 c-57 -2 -149 -2 -205 0 -57 1 -11 3 102 3
113 0 159 -2 103 -3z m555 0 c-15 -2 -42 -2 -60 0 -18 2 -6 4 27 4 33 0 48 -2
33 -4z m380 0 c-16 -2 -40 -2 -55 0 -16 2 -3 4 27 4 30 0 43 -2 28 -4z m990 0
c-53 -2 -143 -2 -200 0 -57 1 -13 3 97 3 110 0 156 -2 103 -3z m550 0 c-16 -2
-40 -2 -55 0 -16 2 -3 4 27 4 30 0 43 -2 28 -4z m490 0 c-15 -2 -42 -2 -60 0
-18 2 -6 4 27 4 33 0 48 -2 33 -4z m-4648 -153 c0 -53 -4 -90 -10 -90 -6 0
-10 37 -10 90 0 53 4 90 10 90 6 0 10 -37 10 -90z m580 0 c0 -53 -4 -90 -10
-90 -6 0 -10 37 -10 90 0 53 4 90 10 90 6 0 10 -37 10 -90z m480 0 c0 -53 -4
-90 -10 -90 -6 0 -10 37 -10 90 0 53 4 90 10 90 6 0 10 -37 10 -90z m290 0 c0
-53 -4 -90 -10 -90 -6 0 -10 37 -10 90 0 53 4 90 10 90 6 0 10 -37 10 -90z
m480 0 c0 -53 -4 -90 -10 -90 -6 0 -10 37 -10 90 0 53 4 90 10 90 6 0 10 -37
10 -90z m390 0 c0 -73 -3 -90 -15 -90 -12 0 -15 17 -15 90 0 73 3 90 15 90 12
0 15 -17 15 -90z m380 0 c0 -53 -4 -90 -10 -90 -6 0 -10 37 -10 90 0 53 4 90
10 90 6 0 10 -37 10 -90z m680 0 c0 -73 -3 -90 -15 -90 -12 0 -15 17 -15 90 0
73 3 90 15 90 12 0 15 -17 15 -90z m480 0 c0 -73 -3 -90 -15 -90 -12 0 -15 17
-15 90 0 73 3 90 15 90 12 0 15 -17 15 -90z m380 0 c0 -53 -4 -90 -10 -90 -6
0 -10 37 -10 90 0 53 4 90 10 90 6 0 10 -37 10 -90z m480 0 c0 -53 -4 -90 -10
-90 -6 0 -10 37 -10 90 0 53 4 90 10 90 6 0 10 -37 10 -90z m-4620 -240 c0
-53 -4 -90 -10 -90 -6 0 -10 37 -10 90 0 53 4 90 10 90 6 0 10 -37 10 -90z
m580 0 c0 -53 -4 -90 -10 -90 -6 0 -10 37 -10 90 0 53 4 90 10 90 6 0 10 -37
10 -90z m480 0 c0 -53 -4 -90 -10 -90 -6 0 -10 37 -10 90 0 53 4 90 10 90 6 0
10 -37 10 -90z m290 0 c0 -53 -4 -90 -10 -90 -6 0 -10 37 -10 90 0 53 4 90 10
90 6 0 10 -37 10 -90z m480 0 c0 -53 -4 -90 -10 -90 -6 0 -10 37 -10 90 0 53
4 90 10 90 6 0 10 -37 10 -90z m390 0 c0 -73 -3 -90 -15 -90 -12 0 -15 17 -15
90 0 73 3 90 15 90 12 0 15 -17 15 -90z m380 0 c0 -53 -4 -90 -10 -90 -6 0
-10 37 -10 90 0 53 4 90 10 90 6 0 10 -37 10 -90z m680 0 c0 -73 -3 -90 -15
-90 -12 0 -15 17 -15 90 0 73 3 90 15 90 12 0 15 -17 15 -90z m480 0 c0 -73
-3 -90 -15 -90 -12 0 -15 17 -15 90 0 73 3 90 15 90 12 0 15 -17 15 -90z m380
0 c0 -53 -4 -90 -10 -90 -6 0 -10 37 -10 90 0 53 4 90 10 90 6 0 10 -37 10
-90z m480 0 c0 -53 -4 -90 -10 -90 -6 0 -10 37 -10 90 0 53 4 90 10 90 6 0 10
-37 10 -90z m-2937 -87 c-57 -2 -149 -2 -205 0 -57 1 -11 3 102 3 113 0 159
-2 103 -3z m-1683 -153 c0 -53 -4 -90 -10 -90 -6 0 -10 37 -10 90 0 53 4 90
10 90 6 0 10 -37 10 -90z m580 0 c0 -53 -4 -90 -10 -90 -6 0 -10 37 -10 90 0
53 4 90 10 90 6 0 10 -37 10 -90z m480 0 c0 -53 -4 -90 -10 -90 -6 0 -10 37
-10 90 0 53 4 90 10 90 6 0 10 -37 10 -90z m290 0 c0 -53 -4 -90 -10 -90 -6 0
-10 37 -10 90 0 53 4 90 10 90 6 0 10 -37 10 -90z m870 0 c0 -73 -3 -90 -15
-90 -12 0 -15 17 -15 90 0 73 3 90 15 90 12 0 15 -17 15 -90z m380 0 c0 -53
-4 -90 -10 -90 -6 0 -10 37 -10 90 0 53 4 90 10 90 6 0 10 -37 10 -90z m680 0
c0 -73 -3 -90 -15 -90 -12 0 -15 17 -15 90 0 73 3 90 15 90 12 0 15 -17 15
-90z m480 0 c0 -73 -3 -90 -15 -90 -12 0 -15 17 -15 90 0 73 3 90 15 90 12 0
15 -17 15 -90z m482 5 c32 -78 31 -75 18 -75 -6 0 -14 10 -19 23 -5 12 -19 46
-30 75 -14 35 -17 52 -9 50 6 -2 25 -35 40 -73z m304 58 c-37 -100 -53 -133
-63 -133 -7 0 0 28 19 75 17 41 35 75 40 75 6 0 7 -8 4 -17z m-3628 -150 c-53
-2 -143 -2 -200 0 -57 1 -13 3 97 3 110 0 156 -2 103 -3z m2020 0 c-53 -2
-143 -2 -200 0 -57 1 -13 3 97 3 110 0 156 -2 103 -3z m670 0 c-53 -2 -143 -2
-200 0 -57 1 -13 3 97 3 110 0 156 -2 103 -3z m815 0 c-29 -2 -77 -2 -105 0
-29 2 -6 3 52 3 58 0 81 -1 53 -3z"/>
</g>
</svg>
